<?xml version="1.0" encoding="UTF-8"?>
<svg id="Layer_2" data-name="Layer 2" xmlns="http://www.w3.org/2000/svg" viewBox="0 0 718.73 207.68">
  <defs>
    <style>
      .cls-1 {
        fill: none;
      }

      .cls-2 {
        fill: #c1272d;
      }
    </style>
  </defs>
  <g id="Logo">
    <g>
      <path d="M243.44,104.42c0-3.51-1.68-7.16-1.68-7.16h-2.63c-.8,0-1.31-.44-1.31-.44l-2.56-4.6c-1.46-.8-3.36,0-3.36,0-.22,3.07-1.83,4.63-1.83,4.63h-8.03l-21.76.02s-5.55-.05-7.01,0-3.07.32-3.07.32c-1.68.37-3.72,2.12-3.72,2.12h-17.82c-1.39-2.12-6.27-2.43-6.27-2.43h-29.51s-1.21-3.25-2.95-4.56c-2.11-1.59-1.35,1.1-1.35,1.1,0,0,2.04,3.79,1.18,3.67-.86-.12-2.27.08-2.88-.05-.61-.12.93-2.04.19-3.76-.81-1.87-3.17-1.83-4.64-1.3-1.47.53-1.35,2.41-1.44,3.99-.09,1.53-.34.81-1.44,1.67-1.59,1.23-2.74,1.9-4.09,1.9s-1.83-.37-3.05-1.84c-1.23-1.47-4-2.15-5.72.08-1.99,2.58-.31,3.82,2.14,6.64,2.45,2.82,2.12,3.82,2.48,5.29.37,1.47-.43,4.28-.67,5.99-.25,1.72-2.09,3.9-4.88,5.06-1.57.65-2.87.58-5.71.19-1.09-.15-3.26-.52-4.43-1.42-1.17-.9-1.72-1.31-2.21-1.76s-.63.23-.45.86c.18.63.95,2.39,2.3,4.88s5.78,5.65,5.78,5.65c0,0,4.3,2.36,6.72,2.24,2.42-.12,2.84.06,5.74,1.51,2.9,1.45,2.96,4.84,2.96,4.84,1.21,2-1.28,6.16-1.28,6.16l-7.1,17.24-9.43,21.72c-1.55,3.84.73,7.29,2.77,9.62,2.04,2.33,6.46,2.43,6.46,2.43,0,0,5.49.05,7.68,0s2.09.34,2.09.34c0,0-1.26,4.13-1.6,5.1s.44,1.21.44,1.21h27.35c2.62-.1,1.99-.19,3.11-1.02,1.12-.83.39-2.77.39-2.77l-2.46-5.51,8.18-24.71,4.02-11.12c3.09-5.56,9.88-4.61,9.88-4.61h15.93c3.29,0,3.07,0,6.28-1.02,3.21-1.02,4.97-5.11,5.48-6.21.51-1.1,1.24-3.72.95-5.92-.29-2.19-.07-4.31-.07-4.31-.07-2.12,2.7-3.58,2.7-3.58,3.87.15,6.87-5.26,6.87-5.26h27.68c2.78,0,3.51-.37,4.53-1.53,1.02-1.17,3.21-1.24,4.16-1.46.95-.22,1.61-3.21,1.61-3.21l-.07-5.92c.73-2.78.44-5.48.44-8.98ZM168.6,104.1c.38-.15,2.66-.26,2.66-.26h14.29s.81-.2.86.36c.05.56-.79.74-2.31.81h-8.49s-4.23-.03-4.83-.13l-1.21-.15-1.11-.15s-.25-.33.13-.48ZM168.6,107.76c.38-.15,2.66-.26,2.66-.26h14.29s.81-.2.86.36c.05.56-.79.74-2.31.81h-8.49s-4.23-.03-4.83-.13l-1.21-.15-1.11-.15s-.25-.33.13-.48ZM109.07,100.81s-.71-.58-.48-.94c.23-.35.94-.58,1.37-.25l3.17,2.43s.74.33.49.91c-.25.58-.62,1.2-.62,1.2,0,0-.14.44-1.19-.54l-2.75-2.81ZM121.81,191.9h-14.02s-1.82-.06-2.74-.67c-.92-.62-3.22-2.55-3.69-4.62-.48-2.07.62-4.48.62-4.48l2.77-6.21,3.13-7.08,2.97-6.88,4.95-11.3,2.99-7.05s.54-2.38.58-3.58c0,0,.59-4.58,1.49-4.66.9-.08,2.39,1.49,2.43,2.33.04.84.71,3.43-.47,6.09-1.18,2.66-3.45,7.95-3.45,7.95l-2.51,6.15-4.19,9.79-5.64,13.32-.45.9s-.48.82.3,1.36c.78.54,1.69,1.17,1.69,1.17l7.09,5.28s1.29,1.46,3.19,1.35c1.9-.11,5.54,0,5.54,0h13.93s1.12-.09-.31.69h-7.67l-8.53.14ZM127.3,125.8c-.22-.53-.56-3.1-.3-2.7l4.06,6.26-4.44,4.41s-.54-.1-.13-1.02.93-2.93,1.71-3.74c.77-.81-.67-2.68-.89-3.21ZM128.05,135.21c.67-.94,1.01-2.23,3.03-3.51s2.77-1.96,2.29-3.17l-3.24-4.72-1.42-2.02s-.23-.7.18-.94c.41-.23.9-.16,1.17.16.27.31,2.29,2.58,2.29,2.58l1.35,1.7s1.17,1.53,1.19,2.25c.02.72,0,3.17,0,3.17,0,0-.35,1.94-1.45,2.29s-2.62,1.64-2.94,2.37c-.31.72-1.6,3.41-1.6,3.41l-9.17,22.46s-.94,2.36-1.35,2.5.81-3.44.81-3.44l2.5-7.35,3.64-9.98s2.02-6.81,2.7-7.76ZM137.88,126.44s-.1,3.55-.12,4.21c-.02.66-.56,0-.56,0,0,0-.19-2.26-.19-3.02s-.15-1.53-.15-1.53l-3.5-4.36c-.29-.36.1-.27.49-.27s1.61,1.24,1.61,1.24c0,0,.92,1.44,1.8,2.36.88.92.63,1.36.63,1.36ZM138.29,136.39c1.81,0,3.27,1.46,3.27,3.27s-1.46,3.27-3.27,3.27-3.27-1.46-3.27-3.27,1.46-3.27,3.27-3.27ZM130.21,178.63c0,1.81-1.46,3.27-3.27,3.27s-3.27-1.46-3.27-3.27,1.46-3.27,3.27-3.27,3.27,1.46,3.27,3.27ZM143.07,198.06c-.33.36-1.11.43-1.49.45-.38.02-2.63,0-2.63,0,0,0-.57-.64-1.49-1.25s-2.87-1.35-3.58-1.42-1.97-.4-1.97-.4l.69-.26s3.36-.36,5.16-.14c1.8.21,2.75.17,3.39.71.64.54,2.25,1.97,1.92,2.32ZM163.8,149.5l1-2.5s2.15,1.04,3.39,1.5c1.23.46,4.39,1.15,4.39,1.15l-8.78-.15ZM170.82,137.9c-.44,2.46,1.66,7.74,1.66,7.74-.71.27-2.41.31-4.51-.49-2.1-.8-3.39-3.3-3.93-7.25-.54-3.95,3.26-6.59,4.91-7.35s4.47,0,4.47,0c0,0-2.1,4.55-2.6,7.35ZM175.96,147.39l.95-.78s.76-.4-.08-1.24-2.51-2.78-2.82-4.53-.27-2.83-.27-2.83c0,0,.38-4.06,2.59-5.77,2.21-1.71,2.51-2.44,2.51-2.44,0,0,4.03-.34,6.2.88,1.51.84,3.27,1.45,4.26,4.3s.81,5.7-.23,7.54c-1.53,2.72-2.93,4.04-5.02,4.47-2.09.44-8.11.4-8.11.4ZM195.47,130.34c-.52.67-1.19,1.34-1.82,3.07-.64,1.73-.33,2.86-.27,5.41.06,2.55-.52,4.56-1.03,5.62-.52,1.06-2.22,3.25-3.56,4.2-1.34.94-3.77,1-3.28.79.49-.21,3.41-2.44,3.41-2.44,0,0,1-.93,2.19-2.66,1.19-1.73,1.12-2.98,1.49-4.85.36-1.87-.7-5.16-.7-5.16,0,0-.97-2.55-2.13-3.68s-.55-1.22-.55-1.22c0,0,5.38.03,5.93,0,.55-.03.85.24.33.91ZM199.08,124.56c-2.1,1.58-5.5,1.22-5.5,1.22h-21.68s-1.7.07-2.14.07-1.44-.06-1.91-.15-1.33-.65-2.04-.76c-.71-.11-1.12-.22-2.96.11-1.85.33-3.51,1.38-5.93,4.09-2.42,2.71-1.19,7.6-1.17,8.06.02.46.86,1.82,1.54,2.29s2.05,2.05,2.61,2.92c.56.87.48,3.14.48,3.73s-1.51,2.55-1.96,3-2.24,1.19-2.7,1.22c-.46.03-1.47.24-2.21.73-.74.49-1.15.56-1.15.56v-2.9s-.03-1.11,0-1.43c.03-.32.56.67,1.62,1.3,1.06.62,2.23.13,3.07-.12.84-.25,1.5-1.01,2.02-1.99.52-.98.3-1.96.24-2.77-.07-.81-.74-1.42-1.57-2.33s-3.49-.91-3.49-.91c0,0-1.1.15-1.65-.3-.56-.46-.59-1.2-.89-2.07s.39-2.74.39-2.74l.79-2.71s1.27-4.23,1.45-5.65c.19-1.42-.4-3.07-.96-3.96-.56-.89-1.06-1.77-2.31-2.88s-4.16-1.06-4.16-1.06h-8.19s-4.91.11-4.91.11c0,0-5.34-.05-7.06.15-1.72.2-2.1,2-2.28,3.01-.18,1.01.92,4.24,1.39,4.99.46.75.06,1.82.06,1.82,0,0-1.43,2.62-1.81,3.54-.38.92-.69.07-.69.07,0,0-1.8-3.1-2.28-3.91-.48-.82-2.88-2.99-2.88-2.99-.74-1.03-4.44-2.02-5.83-2.16s-2.81.38-3.43.54c-.62.17-3.31,1.65-3.31,1.65,0,0-1.34.42-2.96-.41-1.62-.83-.35-1.09-.35-1.09l1.27-.26s2.78-.53,4.47-1.09c1.69-.57,2.78-1.54,3.3-1.99.53-.45,1.54-1.95,1.54-1.95,0,0,.53-1.39.9-1.8s1.84-.26,1.84-.26h83.95c2.1,0,2.1,2.55,2.1,3.21s-.56,2.73-2.67,4.3ZM234.86,120.37c-.26,1.05-1.14,1.31-1.9,1.31h-22.37s-2.05.14-2.22-1.42,1.48-1.28,1.65-1.28l20.58-.14,3.07.07s1.45.41,1.19,1.46ZM230.46,110.89l-35.03-.1s-3.29-.12-4.84.69c-1.55.81-3.17.97-3.17.97l-5,.07s-13.58.05-15.08-.05-3.17-.9-3.54-1.32c-.37-.42-1.74-1.37-1.74-1.37,0,0-4.65.12-7.01.02-2.36-.09-2.61.09-5,1.34-2.38,1.25-4.56-.09-6.02-.83-1.46-.74-2.38-3.68-2.5-4.19-.12-.51,0-2.27.12-3.17s-.19-.35-.44.02c-.25.37-1.37,3.93-1.37,3.93,0,0-.81,2.98-1.16,2.87-.35-.12-.05-2.17-.05-2.17,0,0,.49-3.61.6-4.81.12-1.2-.9.19-.9.19l-.95,3.33s-1.18,3.96-1.32,3.7c-.14-.25.12-3.19.21-3.59.09-.39.58-2.94.58-3.38s.12-1.16-.3-1.06c-.42.1-1.11,2.28-1.23,2.89-.12.6-.65,2.36-.9,2.11-.25-.25-.02-1.8.05-2.61.07-.81.16-2.08-.32-2.13-.49-.05-.76,1.2-.76,1.2l-1.62,5.76s-.46,1.41-.56.67c-.09-.74.95-6.69,1.06-7.2.12-.51-.49-1.16-1.02-.19-.53.97-1.27,2.52-1.27,2.52v-2.95h-1.69s-2.15-.12-4.51.45c-2.36.58-3.96,2.52-5.07,3.82-1.11,1.3-1.37,3.77-1.37,3.77,0,0,.07,2.5,0,3.72s-2.11.99-2.11.99c-1.92-.26-1.24-1.14-1.18-4.43s3.35-7.48,4.93-9.13c1.58-1.64,5.48-1.17,5.48-1.17h37.6c3.77-.07,4.24,1.63,4.37,2.67.12,1.04-.71.95-.71.95h-3.32l-10.41-.09c-1.01-1.01-3.69-1.01-3.69-1.01-1.04-.22-3.26.18-4.05,1.35-.8,1.17-.46,2.92.68,3.72,1.14.8,2.58,1.32,3.35.92.77-.4,2.33-.34,2.33-.34,1.57.52,1.81.31,1.81.31,0,0,12.35-.03,12.99-.03s1.51.61,2.06,1.23c.55.61,1.04.52,1.04.52l5.01.06,12.9-.22c2.52-.18,2.24-3.13,2.24-3.13v-4.61c.25-2.4,3.46-2.3,3.46-2.3h41.94l4.75.17c1.57.99,1.25,3.83,1.25,3.83l-7.5.07-15.63-.04-13.37.07-6.08-.04-4.07.07s-1.26.09-1.28.69c-.02.6.94.71.94.71l1.26.1,8.36.03,8.07-.03,15.44-.06,12.94.06c2.72.56.17,1.22.17,1.22l-1.39.06-13.55.06-17.31-.03-7.22.09-5.15-.03s-2.58,0-2.55,1.3c.03,1.3,1.86,1.13,1.86,1.13l.93.03,17.07-.06,13.87.06,6.92.03,6.56.09c2.28.36,0,1.2,0,1.2h-8.9ZM239.84,119.91c-.43,0-.73-1.04-.76-1.67-.03-.63.2-1.34.56-1.35.36-.02,1.04.61.99,1.35,0,0-.36,1.67-.79,1.67Z"/>
      <g>
        <rect x="686.79" y="112.15" width="8.33" height="1.02" transform="translate(803.61 -578.29) rotate(90)"/>
        <path d="M708.95,116.45v-7.57c-1.35,0-.9-.45-1.36-.45h-13.42c-.31,0-1.24.2-1.38.45h-.93v7.57h.93c.14.25,1.07.45,1.38.45h13.42c.46,0-.07-.45,1.36-.45Z"/>
        <path d="M709.46,109.04v7.16s4,.15,6.1-.89,3.17-2.6,3.17-2.6c0,0-.7-1.93-4.18-3.17-2.08-.74-4.97-.49-4.97-.49h-.12Z"/>
      </g>
      <path class="cls-2" d="M120.28,36.62c-.57,1.59-1.93,3.18-4.08,4.77-2.98,2.17-5.09,3.91-6.33,5.21-1.69,3.04-12.33,26.36-32.05,70.26-19.8,43.71-30.19,66.83-31.03,69.07-.63,2.69-1.93,7.02-3.89,12.99-1.58,3.89-4.52,6.73-8.81,8.53-.47.15-1.14.22-2.02.22-3.67,0-8.73-1.2-15.18-3.59-6.81-2.84-11.6-5.83-14.39-8.97-1.36-1.34-1.74-3.66-1.13-6.94.25-1.34,1.15-2.83,2.7-4.47,1.55-1.64,2.56-2.98,3.05-4.02,9.33-21.25,17.79-40.19,25.36-56.85,18.06-40.01,30.22-65.85,36.56-77.73l-33.58,8.48c-4.58,2.91-7.49,4.21-8.74,3.92-2.92-.58-7.77-3.23-14.54-7.94C5.43,44.83,1.52,41.11.45,38.36c-.48-1.3-.58-2.67-.3-4.12,1.01-5.34,4.23-9.09,9.68-11.25,2.03-.86,4.73-1.44,8.09-1.73,4.83-.43,7.76-.72,8.79-.86l63.46-11.01c1.03-.14,2.89-.93,5.6-2.37,2.04-1,3.83-1.36,5.36-1.08,2.77.58,6.86,5.21,12.29,13.91,5.43,8.72,7.73,14.32,6.86,16.77Z"/>
      <g>
        <path d="M181.13,37.51c-.5,1.2-1.3,2.27-2.39,3.2-1.09.93-2.09,1.39-2.98,1.39-.28,0-.51-.03-.69-.1-.85-.33-2.97-.5-6.35-.5l-13.18,37.87c.02-.06.06.43.13,1.48.07,1.04-.04,1.96-.32,2.75-.62,1.77-2.27,2.71-4.95,2.83-1.41.06-3.76-.49-7.07-1.64-3.63-1.22-5.41-2.35-5.32-3.39,0-.43.54-1.34,1.6-2.72,1.06-1.39,1.72-2.46,1.96-3.2l11.34-34.08h-3.52c-1.31,0-2.57-1.11-3.78-3.35-1.22-2.24-1.61-4.04-1.18-5.39.33-1.01,1.02-1.93,2.09-2.74,1.07-.81,2.09-1.22,3.07-1.22h7.55l3.08-9.26c-.6-1.39-.63-2.88-.1-4.48.49-1.47,1.43-2.38,2.82-2.73.69-.14,1.6-.21,2.73-.21,2.63,0,5.56.4,8.8,1.21,3.23.81,5.23,1.63,6,2.46.35.42.42.91.23,1.46-.24.7-1.18,1.74-2.79,3.12-1.61,1.38-2.54,2.35-2.8,2.9l-1.93,5.54h3.35c.7,0,1.73,1.22,3.1,3.66,1.36,2.43,1.86,4.14,1.5,5.14Z"/>
        <path d="M217.62,82.41c-1.06,1.77-2.25,2.9-3.57,3.38-.54.18-1.4.27-2.59.27-2.25,0-4.79-.32-7.64-.96-2.85-.64-4.49-1.27-4.91-1.88-.15-.3-.13-.67.04-1.1.19-.49.85-1.41,1.98-2.76.59-.49,1.24-1.03,1.94-1.62.7-.59,1.23-1.35,1.6-2.27,10.06-25.06,15.04-38.17,14.57-38.37-.91-.33-4.26,2.1-10,7.28-6.09,5.45-9.73,9.77-10.96,13l-8.02,20.98c.69.99.56,2.28-.39,3.87-1.12,1.89-2.67,3.17-4.64,3.84-.31.12-.73.18-1.26.18-1.78,0-4.25-.38-7.4-1.14-3.16-.76-4.84-1.33-5.03-1.69-.37-.98-.02-2.11,1.04-3.4.13-.18.57-.51,1.3-.97.73-.46,1.18-.91,1.34-1.34L200.74,7.58c.21-.57.19-1.31-.04-2.23-.23-.92-.13-1.71.32-2.35.98-1.5,2.45-2.47,4.4-2.9,1.25-.29,3.8.11,7.63,1.18,4.15,1.15,6.21,2.32,6.18,3.53-.02.78-.57,1.95-1.67,3.51-1.09,1.55-2.07,3.45-2.93,5.7l-7.37,19.26c5.75-4.81,10.47-7.23,14.12-7.23,2.38,0,5.15.8,8.28,2.4,3.13,1.6,4.7,3.04,4.74,4.32.18,4.3-5.26,19.89-15.9,45.77.06,1.48-.24,2.77-.9,3.87Z"/>
      </g>
      <polygon points="689.45 108.6 681.54 108.5 686.04 109.15 680.47 109.29 684.05 109.53 677.9 109.7 684.26 109.95 679.46 110.05 686.91 110.54 680.75 110.5 682.18 110.75 681.13 111.16 683.25 111.23 677.69 111.76 683.22 112.21 681.06 112.38 685.13 113.18 679.98 113.22 686.35 113.95 677.72 114.4 684.82 114.43 683.15 114.78 687.25 115.13 679.25 115.65 689.27 116.28 680.58 116.1 690.07 116.8 689.93 108.52 689.45 108.6"/>
      <g>
        <path class="cls-2" d="M379.4,102.83h8.28l-6.98-1.43,4.66-2.08h-7.27l3.9-1.3-10.02,1.04.42-2.08s-4.33,1.04-6.41,2.35c-.18.11-.39.21-.6.31-3.14-3.37-4.94-5.4-5.37-6.08l12.21-61.31c.33-1.64,1.26-3.73,2.82-6.27,1.28-1.94,1.89-3.51,1.84-4.7-.21-2.69-3.26-5.23-9.15-7.63-5.89-2.39-10.53-3.37-13.92-2.92-3.21.3-6.42.67-9.66,1.12-4.34.75-7.15,2.47-8.42,5.16-.54,1.2-.65,2.77-.36,4.71.29,1.94.41,3.06.35,3.36l-12.1,62.07c-12.55,2.65-24.11,5.23-34.68,7.73l10.36-54.15c.26-1.34,1.45-3.87,3.58-7.6,2.13-3.73,3.25-6.26,3.36-7.61.3-3.88-3.29-7.02-10.77-9.42-5.8-1.8-11.47-2.69-17.01-2.69-1.35,0-2.19.08-2.51.22-5.3,2.69-8.24,4.79-8.82,6.28-2.44,5.83-3.88,9.93-4.33,12.32l-11.17,59.63c-.38,4.06,2.47,3.97,5.33,4.42,2.86.45,1.77,1.75,3.1,2.69,1.33.94,1.49.87,8.74,1.48,4.98.42,4.42,3.42,6.47,3.56,2.37.16,6.11,1.99,6.84,4.24h90.94l.26-1.27s.31-1.56,2.61-1.95c2.3-.39,1.5-1.43,1.5-1.43h4.24l-2.26-.78Z"/>
        <path class="cls-2" d="M376.28,122.31l7.75-1.43h-8.5l2.65-.78h-4.35s1.25-1.04-.96-1.43c-2.2-.39-1.89-1.95-1.89-1.95l.26-1.27h-93.54c-6.34,1.2-13.38,1.63-15.77,3.86-2.38,2.23-8.89,1.23-11.26,4.05-2.37,2.82-2.6,3.37-5.66,3.95l-8.58,45.83c-.22,1.16-.82,3.18-1.8,6.07-.5,1.88-.68,3.61-.53,5.19.18,2.16,5.34,5.01,15.47,8.54,10.12,3.52,16.44,4.86,18.95,3.99,1.26-.43,2.26-1.44,3-3.02.85-2.16,1.79-4.39,2.83-6.7-.01-.72-.36-1.76-1.05-3.13-.7-1.37-.94-2.56-.75-3.57l8.45-44.16c2.85-1.02,8.6-2.48,17.25-4.37,8.65-1.89,14.4-2.99,17.27-3.28l-8.58,44.02c-.08.43-.96,1.52-2.62,3.25s-2.45,3.11-2.35,4.12c-.21,2.6-.37,4.54-.48,5.84,1.18,3.75,5.74,7.49,13.67,11.23,7.36,3.59,13.61,5.39,18.75,5.39,1.46,0,2.59-.14,3.39-.43,3.84-1.58,6.01-6.97,6.53-16.19-.32-5.77-.52-8.44-.61-8.01l10.92-54.84c.88.02,4.77.15,6.19,1.29,1.61,1.3,5.63,2.33,5.63,2.33l.42-2.07,9.86,1.04-3.47-1.3h7.46l-3.93-2.07Z"/>
        <path class="cls-2" d="M563.6,107.02l-6.96-1.6,4.47-.46-3.52-.45,1.7-.98-3.27.49,1.91-1.12-3.96.76-1.31-.85-3.38,2.06,1.23-1.75s-2.93,2.65-4.83,2.13c-.3-.08-.55-.06-.76.03l14.86-67.68c.26-1.19,1.47-2.98,3.64-5.36,2.17-2.38,3.39-4.17,3.65-5.37.87-4.63-4.23-8.66-15.3-12.11-9.83-2.99-16.41-4.12-19.71-3.37-5.23,1.35-8.31,3.45-9.22,6.29-.16.75.1,1.65.77,2.69.67,1.05,1,2.32.97,3.81l-16.21,75.23,5.7,8.86h30.19v-.03s19.33-1.21,19.33-1.21Z"/>
        <path class="cls-2" d="M581.13,155.02c-7.55-6.46-12.39-9.55-14.53-9.26-4.01,1.46-6.81,2.76-8.4,3.92l-25.17,9.8,9.02-41.09c2.05-.47,3.87,1.96,3.87,1.96l-.54-1.71,2.57,1.93,1.64-.9,3.65.61-1.47-1.05,3.08.36-1.32-.92,3.7-.6-4.29-.28,7.59-1.88-17.84-.42v-.04s-31.58,0-31.58,0l-7.8,7.52-10.63,49.31c-.28,1.3-.82,3.11-1.61,5.42-1.65,4.91-1.91,8.51-.79,10.82,1.58,2.88,7.23,5.97,16.93,9.28,9.7,3.3,16.28,4.38,19.76,3.23,1.09-.29,2.41-1.44,3.95-3.45,1.55-2.02,2.88-3.24,4-3.67l35.6-13.4c.98-.43,2.43-.5,4.35-.22,1.92.29,3.52.22,4.79-.22,4.15-1.44,7.87-5.56,11.18-12.36,1.05-2.03-2.2-6.26-9.73-12.72Z"/>
        <path class="cls-2" d="M501.4,35.14c0-2.83-2.84-7.57-8.53-14.21-5.7-6.65-10.23-10.58-13.57-11.78-1.53-.6-5.99,1.05-13.39,4.94-8.03,4.04-14.29,6.06-18.78,6.06-3.44,0-7.63-1.08-12.58-3.25-4.95-2.17-8.3-3.33-10.07-3.48-1.62-.15-4.39.75-8.3,2.69-3.91,1.95-5.98,3.44-6.19,4.49l-16.87,83.13c1.43,1.96,1.13,3.47,1.03,4.55h78.74c-.38-.58-.81-1.19-1.28-1.83l-.48.46-.13-1.26c-.21-.27-.43-.55-.65-.83l-1.3,1.29-.18-3.07c-.17-.2-.34-.4-.52-.6l-.94,1.68-1.23-2.8-.67,1.83-.15-2.68h-1.57l-.38-3.35c-4.4-4.38-7.59-6.45-9.54-6.22-8.9,2.8-16.22,5.52-21.96,8.16l7.47-36.07c6.23-4.89,15.25-9.19,27.06-12.9,4.97-1.63,10.26-3.04,15.89-4.23.33-.15.82,0,1.47.45.65.45,1.8.67,3.44.67,1.94,0,4.78-1.63,8.54-4.91,3.76-3.27,5.63-5.58,5.62-6.92Z"/>
        <path class="cls-2" d="M671.54,107.41l-4.23-.84,2.11-.56-5.89-.56s1.93.19,2.63-.37-2.71-.47-3.75-.47-2.66.09-3.28-.47-1.07,1.2-2.4,1.67c-1.33.47-3.21-.64-3.21-.64l-1.35-1.95,15.18-65.64c.28-1.19,1.51-2.98,3.71-5.36,2.2-2.38,3.43-4.17,3.71-5.37.92-4.63-4.13-8.66-15.16-12.11-9.8-2.99-16.36-4.12-19.67-3.37-5.25,1.35-8.35,3.45-9.29,6.29-.17.75.08,1.65.74,2.69.66,1.05.97,2.32.93,3.81l-18.42,81.09,3.89,1.16-.6.32,1.51.12-.6.32,2.06.56-.49.2.58.31h30.76l18.77.26-2.63-.84,4.39-.28Z"/>
        <g>
          <path class="cls-2" d="M687.3,155.02c-7.47-6.46-12.28-9.55-14.42-9.26-4.03,1.46-6.85,2.76-8.45,3.92l-25.29,9.8,9.46-40.88c.31-.33.75-.75,1.11-.9.64-.26,2.44-.1,2.44-.1l-1.19-.29c1.16-.36,2.48-.11,2.84-.02l-1.14-.27,4.69-.26-2.25-.06,3.48-.49-1.88-.1,3.53-.65h-10.91,0s-29.3,0-29.3,0l-.76.21.71.08-2.91,1.04.53.32-3.34.96,1.02.16-3.31.84.88.24-2.3.59-11.9,52.38c-.3,1.3-.85,3.11-1.67,5.42-1.7,4.91-2.01,8.51-.91,10.82,1.55,2.88,7.16,5.97,16.82,9.28,9.66,3.3,16.23,4.38,19.73,3.23,1.09-.29,2.42-1.44,3.99-3.45,1.57-2.02,2.92-3.24,4.05-3.67l35.76-13.4c.98-.43,2.44-.5,4.35-.22,1.92.29,3.51.22,4.79-.22,4.16-1.44,7.94-5.56,11.32-12.36,1.07-2.03-2.12-6.26-9.58-12.72Z"/>
          <path class="cls-2" d="M653.82,117.29l.1.02s-.04-.01-.1-.02Z"/>
        </g>
        <path class="cls-1" d="M474.29,117.04s-.06.1-.1.15l.21-.03-.12-.12Z"/>
        <path class="cls-1" d="M474.05,117.38s-.07.09-.1.13l.76-.04-.66-.09Z"/>
        <path class="cls-1" d="M474.96,115.84c-.03.07-.05.13-.08.2l.24-.04-.16-.15Z"/>
        <path class="cls-1" d="M473.43,118.16c-.06.07-.12.15-.19.22l.46-.09-.27-.13Z"/>
        <path class="cls-1" d="M474.8,116.18s-.04.07-.05.1l.64-.07-.58-.03Z"/>
        <path class="cls-1" d="M474.64,116.48s-.04.07-.06.11l.7-.04-.64-.07Z"/>
        <path class="cls-1" d="M473.76,117.77s-.05.07-.08.1h.47s-.4-.1-.4-.1Z"/>
        <path class="cls-1" d="M473.05,118.6s-.04.04-.06.06h.35s-.29-.06-.29-.06Z"/>
        <path class="cls-2" d="M467.57,156.98c-7-6.32-11.53-9.48-13.6-9.48-1.77,0-6.83,1.78-15.17,5.34-8.34,3.56-14.99,6.64-19.95,9.25l4.74-22.88c15.92-8.31,26.8-12.98,32.64-14,3.76-.29,6.38-.44,7.86-.44,1.11-.32,2.3-.88,3.56-1.67l-1.04.1,1.81-.92-1.07.33,2.29-1.4-1.18.15,2.37-1.22-1.19.11,2.29-1.22-.37-.11.91-.05-.57-.18,1.1-.02s.04-.04.06-.06l-.49-.09.69-.13c.07-.07.13-.15.19-.22l-.56-.27.8-.02s.05-.07.08-.1l-.91-.2,1.11-.06s.07-.09.1-.13l-.6-.08.74-.11c.04-.05.06-.1.1-.15l-.19-.19.32-.03-.22-.21.38-.02s.04-.07.06-.11l-.84-.09.94-.1s.04-.07.05-.1l-.62-.03.7-.12c.03-.07.05-.13.08-.2l-.2-.2.27.04c.03-.07.06-.14.09-.21h-79.94c-.79.96-1.77,2.03-2.88,3.18-1.16,1.21-2.04,2.02-2.7,2.43l-13.21,65.08c-.38,1.88,3.59,4.75,11.9,8.64,1.2.57,8.54,3.81,22,9.7,10.68-7.62,21.97-13.87,33.87-18.77,5.01-2.16,9.94-3.89,14.77-5.19.32-.14.63-.22.93-.22.73,0,1.62.32,2.66.97,1.04.65,1.79.9,2.26.76,1.74-.58,3.98-2.27,6.71-5.09,2.73-2.82,4.59-5.45,5.55-7.92.67-1.74-2.49-5.76-9.48-12.06Z"/>
      </g>
    </g>
  </g>
</svg>